<?xml version="1.0" encoding="UTF-8" standalone="no"?>

<svg
   xmlns="http://www.w3.org/2000/svg"
   width="1037"
   height="964"
   id="svg2"
   version="1.0"
   style="display:inline" viewBox="0 0 1037 964" preserveAspectRatio="xMidYMid meet">
  
  <defs
     id="defs4" />
  
  <g
     id="layer5"
     style="display:inline">
    
    <path
       transform="translate(-0.1494083,-88.731457)"
       style="fill:#0f1525;stroke:#60a5fa;stroke-width:0.80000001;stroke-linecap:round;stroke-miterlimit:4;stroke-dasharray:none;display:inline"
       d="M 175.16093,385.2741 C 175.21384,386.6602 173.87829,386.65887 173.62637,387.73976 C 172.51107,387.95301 172.70729,389.47772 171.70683,389.80559 C 171.37796,390.80118 170.36628,391.11306 169.7873,391.85675 C 168.68634,392.09133 168.74103,393.48143 168.24746,394.32242 C 167.52918,394.93284 167.2995,396.03239 166.32794,396.38824 C 165.80837,397.28654 164.50625,397.4025 164.02343,398.33678 C 163.2765,398.94454 162.31148,399.33371 161.71897,400.09607 C 160.92583,400.71715 160.03969,401.24627 159.11252,401.73407 C 158.07821,402.12058 157.82981,403.29343 156.50081,403.3854 C 155.00264,403.23346 155.10082,404.67687 154.11856,405.03939 C 153.40782,405.88838 151.6319,405.6738 150.97168,406.57343 C 150.41193,407.36778 149.25027,407.56103 148.66721,408.33138 C 147.14559,408.3727 146.4424,409.23102 145.20781,409.55888 C 144.90335,410.80504 142.99008,410.43853 142.21641,411.21021 C 141.10229,411.51942 140.21328,412.10451 139.52697,412.84821 C 138.12672,413.0388 137.46084,413.96509 135.99512,414.09037 C 134.87977,415.38051 133.22435,413.59058 131.54013,414.09037 C 130.81484,413.1321 128.13871,414.12503 127.31761,413.26271 C 125.68942,413.12543 124.4709,414.29029 123.70804,412.84821 C 122.81098,412.2991 121.54473,412.07919 121.78319,410.39588 C 120.79217,410.73441 119.68743,411.07027 118.86958,411.62471 C 117.18866,411.42346 117.701,413.43597 115.64344,412.84821 C 113.43754,412.65096 115.77954,414.5995 114.49004,415.32854 C 114.07111,416.24283 113.15817,416.66399 112.95548,417.7942 C 111.7245,418.01011 111.34937,419.08301 110.26604,419.44553 C 108.90237,419.64678 109.37447,421.68328 108.34652,422.21907 C 107.65023,422.96943 108.08619,424.85399 106.57718,424.79135 C 105.87176,424.12096 102.62983,424.04232 104.12249,425.61902 C 105.45255,425.85759 104.83797,427.98339 104.12249,428.39122 C 103.96043,429.5934 102.36239,429.35883 102.20295,430.56234 C 101.26698,431.07946 100.09735,431.36201 99.898446,432.61617 C 98.244586,431.93778 97.811136,432.77077 98.363884,434.05425 C 98.43083,435.59496 97.298931,435.93615 96.209627,436.31999 C 95.893409,437.45553 95.102171,438.1166 93.905125,438.37116 C 91.785348,437.02771 92.195741,439.48004 92.215053,441.35128 C 92.235538,442.95863 91.398852,444.24077 92.215053,445.58289 C 92.940824,446.47853 92.980661,448.05922 93.369956,449.29072 C 93.980001,450.19568 94.057956,451.63376 94.826763,452.38013 C 94.650435,454.03012 95.689999,454.46195 96.059395,455.5655 C 96.404948,456.58908 97.393012,456.97026 97.593957,458.13912 C 98.558138,458.64558 98.843356,459.83043 99.12852,461.01661 C 99.854344,461.61903 100.07855,462.72392 101.04805,463.08244 C 101.30066,464.19665 102.72652,464.13801 102.58789,465.64273 C 102.06413,467.17944 100.46303,465.75602 99.12852,465.95993 C 98.756937,467.91647 99.859489,468.39894 100.28342,469.5598 C 100.38328,471.31775 98.971997,471.56432 99.513483,473.76342 C 98.624738,474.87631 99.936871,476.09181 99.513483,477.90307 C 98.686113,478.65877 99.087776,480.64329 98.363884,481.50294 C 98.413024,483.39151 98.424873,485.24142 97.978921,486.63419 C 97.031466,487.68976 98.438214,488.90793 97.978921,490.65122 C 97.436648,491.94803 97.605339,493.95654 97.593957,495.7838 C 97.829302,497.26053 96.974663,499.7915 98.363884,500.13403 C 98.029633,502.01593 99.229065,502.36379 99.513483,503.62594 C 100.21564,504.18171 100.57889,505.07468 101.43302,505.47719 C 101.85252,506.51943 102.02539,507.80824 103.35255,507.94285 C 104.44166,508.3107 104.25163,509.95803 105.65705,510.00868 C 106.00223,511.14688 106.91253,511.71865 106.81191,513.302 C 106.9518,514.76674 108.45928,514.86537 108.34652,516.58333 C 109.63874,516.68596 109.939,517.78018 110.26604,518.84775 C 110.95212,519.53413 111.61453,520.24584 112.10782,521.12549 C 112.04278,522.64353 113.91188,522.22637 114.41231,523.17932 C 115.23593,523.70977 115.02368,525.2758 116.40957,525.24514 C 117.21836,526.02616 118.39998,526.43399 118.71407,527.71081 C 120.07873,527.76678 120.47906,528.7877 121.32578,529.36213 C 121.85082,530.17647 122.49045,530.87752 123.70804,531.00013 C 123.96481,532.0677 125.45016,531.90643 125.62756,533.05397 C 126.66547,533.33518 127.08882,534.23082 127.93203,534.70796 C 128.46394,535.6729 129.64266,535.99144 130.7732,536.35929 C 131.52262,537.11231 132.65546,537.4815 133.22794,538.41178 C 133.28938,539.85786 134.63619,540.01913 134.45529,541.70644 C 134.85433,542.7287 135.76504,543.23782 136.75979,543.66298 C 137.61121,544.13479 138.30125,544.78119 138.98653,545.40894 C 139.94246,546.02869 141.03159,546.51515 141.75372,547.36814 C 142.75881,547.77997 143.8842,548.07319 144.05822,549.31668 C 144.35999,551.12395 142.79066,551.05997 142.21641,551.99159 C 142.46952,553.455 140.96479,554.87708 142.90335,554.88508 C 143.69837,555.50083 143.73348,556.8776 144.67264,557.35075 C 146.04534,557.58265 146.92843,558.30502 147.12735,559.71112 C 147.03265,561.27182 148.88555,560.88397 149.3541,561.88223 C 150.67857,562.01018 150.84301,563.29766 151.65858,563.93473 C 152.22702,564.87568 151.93061,566.68028 152.89122,567.22806 C 152.83958,568.61683 154.17592,568.61816 154.42578,569.70572 C 155.43782,569.87098 156.04449,571.63027 155.1957,572.47926 C 155.99521,573.14565 157.02519,573.58281 158.26487,573.81071 C 158.81017,575.34875 160.20924,573.5135 161.26152,574.63704 C 162.24081,575.08886 162.61928,576.14043 162.87383,577.31729 C 162.72463,578.85533 161.47026,579.20052 163.48826,579.58037 C 165.25756,579.29515 165.77329,580.26276 166.7129,580.80787 C 166.6486,582.18597 165.87539,583.39748 167.09786,584.11186 C 166.48992,585.87114 168.80407,586.42825 167.56055,587.81968 C 166.34433,588.30215 166.82545,589.483 167.86776,589.87085 C 167.78465,591.52884 167.62559,593.11086 167.17559,594.40233 C 166.33087,595.11938 166.15955,596.01634 167.09786,596.76271 C 167.11403,597.96355 165.44996,598.9818 167.02011,599.74816 C 167.43999,601.42614 165.8289,601.15559 166.7129,602.63765 C 168.50057,602.03923 169.71981,603.49863 168.63242,604.58619 C 169.33767,606.45476 167.42915,607.05452 168.24746,607.87685 C 168.98484,608.68985 170.38994,608.8338 171.55136,609.22297 C 173.36592,609.01106 174.47065,609.50819 175.54589,610.03464 C 175.67564,611.32745 177.43274,610.99158 177.85039,611.99651 C 178.79354,612.61759 180.88988,612.08581 181.30448,613.23467 C 181.68509,614.05167 183.59047,614.51682 182.45938,615.70034 C 182.61523,616.97582 184.39773,616.62396 184.37892,618.07404 C 184.91526,618.93768 186.13725,619.11628 185.91349,620.74095 C 186.60287,621.35403 186.89017,622.36829 187.75526,622.80544 C 188.7273,623.36122 189.32443,624.29284 189.36757,625.77757 C 189.39668,627.49554 189.34354,629.1322 188.21799,629.69464 C 187.36507,630.3597 187.94956,632.46151 187.06308,633.09192 C 186.39181,634.42738 186.82789,635.59224 187.44805,636.5865 C 188.07422,637.52345 188.32016,638.83892 188.21799,640.50358 C 189.40826,640.5982 189.13023,643.16249 188.60295,643.7969 C 189.83088,644.76051 187.88111,646.47448 189.2951,647.08623 C 189.31394,648.467 188.72893,649.85044 188.98789,651.70702 C 188.5522,653.87547 189.80673,654.35261 189.75255,656.13988 C 190.26166,658.20037 188.88953,658.37897 188.60295,659.64379 C 188.68,661.38574 188.34388,662.71454 187.83301,663.86873 C 188.14839,665.73064 186.66005,665.79062 186.68339,667.36065 C 186.94504,669.28653 186.88248,669.41315 186.68339,671.38568 C 186.03524,672.49722 185.90957,674.13123 185.91349,675.89451 C 185.45398,677.42455 184.1134,675.60396 183.60898,677.03671 C 182.85528,679.17051 184.12006,678.792 183.99395,681.04974 C 183.45539,681.9014 182.53718,682.37187 181.68946,682.91432 C 181.30845,684.0352 180.28725,684.51633 180.1549,685.88644 C 180.75009,686.87804 180.12357,689.09047 181.30448,689.49697 C 182.17485,690.06874 183.81863,689.86749 183.99395,691.13497 C 185.67326,691.00569 185.71677,692.51308 186.68339,693.09684 C 186.29454,694.96541 187.16889,695.57183 187.83301,696.38883 C 188.97921,697.82292 187.06704,698.28273 187.44805,700.08333 C 188.78854,700.25393 188.84849,701.70667 188.98789,703.07811 C 189.34971,704.19766 190.06037,704.96801 190.13751,706.37144 C 190.79807,707.22709 190.98573,708.55588 191.28711,709.77139 C 191.52544,711.07219 192.58027,711.556 193.13416,712.54093 C 193.50285,713.39925 194.4514,713.67647 194.74648,714.60676 C 195.70686,715.1492 196.04404,716.31406 196.28104,717.58021 C 196.28104,719.47144 196.28104,721.36401 196.28104,723.25524 C 197.3898,723.62975 197.13191,725.37038 197.43594,726.54856 C 198.14455,727.2656 198.89784,727.94 199.66269,728.60106 C 200.05345,729.55401 201.25987,729.68995 202.03963,730.25239 C 202.62437,730.99209 203.65792,731.28264 203.95917,732.30622 C 204.45162,733.2565 206.35405,732.79669 206.64863,733.94555 C 207.4445,734.57063 208.34377,735.09309 209.26035,735.59821 C 209.54422,736.75241 211.17025,736.56449 212.02753,737.14558 C 212.7451,737.62272 215.16429,738.21848 215.48163,736.943 C 217.3543,736.24595 218.22113,737.45213 217.78613,739.40067 C 218.24412,740.6215 219.53851,739.18076 220.32008,740.54287 C 221.11208,741.46916 222.9911,741.30922 222.39512,743.62428 C 221.50263,746.20856 225.34219,744.06144 224.69962,746.39515 C 225.18814,747.38808 225.28052,748.77552 226.77086,748.76619 C 227.86992,749.3193 229.96848,748.87281 230.07325,750.42018 C 231.03887,750.97596 231.81367,751.73165 232.99214,752.07151 C 233.8532,752.77922 235.41452,752.78722 235.44688,754.32393 C 235.86005,754.99299 237.02538,756.80958 236.21678,757.41733 C 235.83813,758.57686 234.17378,760.03227 236.60174,759.17529 C 237.86929,758.93672 238.3375,760.40279 239.82788,760.29483 C 240.67588,760.95323 241.74068,761.39572 242.28259,762.36066 C 242.58251,763.37491 243.84743,763.42422 244.27987,764.30653 C 245.73817,764.39849 246.2899,765.39675 247.58376,765.65265 C 248.61774,766.14178 249.18258,767.10006 249.27382,768.53148 C 250.30969,768.82336 250.08504,770.37739 251.19335,770.59731 C 251.60526,771.77949 251.58965,773.38817 252.27048,774.30113 C 252.7127,775.95379 251.14124,776.18703 251.19335,777.68909 C 251.17843,779.07252 252.67464,778.94591 252.72792,780.26137 C 253.3097,781.08637 253.66822,782.13394 254.26776,782.94028 C 254.75674,783.70131 255.44122,785.68983 254.64745,786.53749 C 253.06787,786.43886 252.87756,787.729 251.96326,788.29544 C 252.06597,789.55626 249.94904,789.82415 250.80839,790.65714 C 251.74412,791.08897 251.98791,792.21384 252.34296,793.22676 C 253.15218,793.89582 253.33056,795.19396 253.8828,796.12025 C 255.06028,796.3335 255.26533,797.51968 256.41677,797.75825 C 256.87153,798.67388 257.8876,799.02707 258.87148,799.41225 C 259.30385,800.27989 260.02623,800.85832 260.71853,801.46608 C 261.23165,802.53231 263.06954,802.27508 264.63535,802.28974 C 265.69333,802.9668 267.26357,803.13073 269.01258,803.11741 C 270.30109,803.53723 272.12377,803.42395 273.31284,803.94374 C 274.24618,804.68877 276.60326,804.01038 277.53687,804.75541 C 279.28164,804.95666 281.83188,804.35157 283.06601,805.06328 C 284.5884,804.78073 285.43124,806.62931 286.44235,805.58307 C 287.92494,805.66304 288.70073,807.12111 290.20895,805.99757 C 291.84255,805.07261 292.07975,806.46937 293.89252,806.4094 C 295.09968,806.83989 296.41789,807.15976 297.57986,807.63557 C 298.87672,807.92878 300.51593,807.8808 301.1117,808.87506 C 302.7473,808.80309 303.49287,810.20252 304.80055,809.2869 C 306.38464,809.41218 307.65224,809.85466 308.79508,810.4211 C 310.04716,810.76496 311.20022,811.20611 312.2492,811.75256 C 313.92338,811.81253 315.13368,812.33632 316.62494,812.58022 C 317.63119,813.29193 319.35139,813.2906 320.54176,813.81838 C 321.2786,814.57674 322.86448,814.48745 323.38671,815.46038 C 324.90794,815.63098 326.47871,815.7536 327.22577,816.69855 C 328.49356,816.9691 329.36095,817.64083 330.29491,818.24592 C 331.4436,818.64176 332.31684,819.31348 333.59879,819.57737 C 334.6963,820.10516 335.33342,821.09409 336.82342,821.23004 C 337.21375,822.25095 338.49373,822.40956 339.12791,823.17724 C 340.18736,823.59041 341.29221,823.95959 342.20233,824.52336 C 342.37858,825.79218 343.43204,826.18269 343.65914,827.40086 C 344.19662,828.22319 344.57951,829.19879 345.27148,829.86652 C 345.71095,830.7315 346.41812,831.32859 347.11853,831.93235 C 347.48005,832.79333 348.43411,833.05989 348.73085,833.98618 C 349.66635,834.44466 349.97307,835.53355 351.2648,835.63751 C 351.73008,836.41985 352.62633,836.77171 352.95486,837.69 C 353.67927,838.29509 353.90148,839.40131 354.8744,839.75583 C 355.32391,840.60482 356.01376,841.21257 356.71618,841.807 C 358.28534,842.01624 357.16517,843.87549 358.17828,843.87282 C 358.70397,844.9004 359.54186,845.61611 359.86306,846.84894 C 360.25722,848.05112 360.04556,849.86105 360.633,850.86997 C 362.17849,850.78734 361.70554,852.72122 362.55251,853.33564 C 363.58228,853.63018 363.36806,855.16956 364.47205,855.38947 C 364.64133,856.65162 365.79348,856.93017 366.39158,857.76317 C 367.06037,858.44423 368.5256,858.32827 368.69607,859.50913 C 369.63487,859.99026 370.58967,860.45674 371.30777,861.16045 C 371.80439,862.08008 372.87995,862.42127 373.91948,862.79845 C 374.52122,863.64478 375.52966,864.0846 376.60894,864.45245 C 377.70143,864.8083 378.13112,865.80256 379.29829,866.10244 C 379.85855,867.04206 381.65733,866.73019 382.13807,867.74444 C 384.01618,867.5072 384.41005,868.7547 385.82163,868.98394 C 386.46094,870.05017 388.43742,869.77961 390.12639,869.79561 C 391.33474,870.29674 392.9061,870.43401 394.42666,870.62327 C 396.35537,870.47933 397.74241,870.87783 398.95641,871.4496 C 400.55569,871.58421 401.73044,872.14398 403.33215,872.27593 C 405.3671,872.04402 406.19455,873.01963 408.32759,872.6891 C 410.47685,872.6891 412.6261,872.6891 414.77536,872.6891 C 415.42633,873.54208 415.66032,874.81356 417.23685,874.74159 C 417.72729,875.77451 419.29539,875.72919 420.15427,876.39292 C 421.32243,877.5058 419.60108,879.1398 420.15427,880.90442 C 419.58846,882.94892 421.47844,882.53709 421.68884,883.80457 C 423.70289,883.41806 423.49525,886.33688 422.84372,886.27024 C 423.40059,887.13922 423.99612,887.97088 424.76325,888.62928 C 425.61328,889.10775 426.28952,889.75948 426.98999,890.38723 C 428.19205,890.66178 428.4444,891.88662 429.36696,892.44106 C 430.32973,892.0079 431.67621,892.30511 432.74859,892.85289 C 434.34897,892.84356 435.5261,893.25806 436.28044,894.09505 C 437.96659,894.02975 438.19093,895.42784 439.50657,895.73305 C 441.61723,895.35721 441.73067,896.97788 443.88231,896.56072 C 445.33605,896.82994 447.13662,895.31056 448.18786,896.56072 C 450.06298,896.65668 447.56697,899.5475 449.48918,899.02638 C 450.6143,900.16991 452.4768,898.87844 453.94645,899.02638 C 455.28886,898.42396 453.53818,897.0192 454.94584,896.56072 C 456.09276,896.61269 456.74194,898.45461 455.86598,899.33292 C 454.54163,899.31293 453.81028,900.85097 454.7111,901.91587 C 455.8297,901.85856 458.11405,900.67771 458.17047,902.53029 C 458.96811,903.06607 459.17429,904.19361 460.31947,904.38153 C 461.25556,905.12523 460.91908,907.14174 461.23961,908.50119 C 462.59132,908.23063 465.98584,909.25422 464.69899,907.47494 C 464.67224,905.89292 466.94108,906.60596 467.92512,906.03553 C 469.20929,904.6321 469.90137,906.94449 471.60719,906.43536 C 472.82034,906.06218 473.75071,905.40512 475.14054,905.2092 C 476.55801,905.45043 478.17129,905.49575 479.29059,906.03553 C 479.11242,907.50559 483.95926,905.90625 483.51461,906.43536 C 484.45517,905.63969 486.30825,906.41804 487.35367,906.74324 C 488.20982,907.21505 488.87766,907.87611 489.58042,908.50119 C 489.94637,909.58342 491.42824,909.54876 492.26987,910.15518 C 492.95877,911.0255 495.05094,910.49238 495.41676,911.68656 C 496.63741,912.06641 498.01366,912.29031 498.87086,913.03268 C 499.91419,913.30324 499.83193,914.7 501.17535,914.67201 C 501.8884,915.53433 503.51607,915.48235 504.24976,916.32467 C 505.37032,916.64721 506.14839,917.31227 506.93922,917.96401 C 508.74878,918.03065 510.94518,917.71211 512.15735,918.37584 C 513.04369,918.93828 513.64762,919.78193 514.84681,920.02983 C 515.81142,920.53363 516.62968,921.18403 517.61401,921.66916 C 517.86057,923.00329 520.10128,922.34356 521.53082,922.4955 C 522.37323,923.38713 524.88968,922.60478 525.90656,923.32183 C 527.25817,923.70434 528.55834,924.13883 530.2823,924.14949 C 531.01111,925.65954 533.19436,923.16989 533.81792,924.56132 C 535.7394,924.20014 535.87204,925.62755 537.27202,925.78749 C 538.50315,926.14734 537.43555,928.80493 539.57652,928.25315 C 540.13047,929.1208 541.54347,929.1288 541.88101,930.21236 C 542.83931,930.3363 542.86951,932.54741 543.72279,931.55847 C 545.05047,931.50916 546.51025,930.16837 547.56713,931.14664 C 548.20487,931.84636 549.27691,932.11425 549.94409,932.78464 C 550.20519,933.91885 551.8783,933.64163 551.86363,935.05039 C 552.79286,935.3356 553.07015,937.83725 551.94137,938.14379 C 551.3822,939.72049 552.93581,939.80978 553.40347,940.60946 C 553.74116,941.8876 555.91137,941.20255 555.323,939.17804 C 556.10398,938.33438 557.54486,938.15046 559.16206,938.14379 C 559.15086,936.08597 560.87657,937.27481 561.69602,937.7293 C 562.81376,938.12913 564.10062,939.03543 564.92065,937.83592 C 565.78172,936.75503 566.56634,938.41968 567.22514,938.03584 C 568.37986,938.33838 569.05378,939.48592 569.9146,938.24775 C 571.57263,937.70531 572.39727,938.86617 573.75366,938.96746 C 574.69451,939.49524 574.88602,940.77206 576.51709,940.60946 C 577.90181,940.5948 577.66381,942.20348 578.97707,942.26079 C 580.05446,943.27637 580.86135,942.40606 581.81674,943.07512 C 583.79445,943.22972 585.34576,942.95784 586.88466,942.67528 C 588.6344,942.79124 590.12884,942.65263 590.64975,941.54108 C 591.54658,940.88801 592.95799,940.7494 593.95363,940.19496 C 594.68192,939.33664 596.0813,939.15005 597.17826,938.66092 C 598.48246,938.37437 600.17002,938.47166 601.01733,937.7293 C 602.01816,937.53204 603.0358,936.20325 604.09174,937.31613 C 604.45881,938.38503 605.20702,939.07275 605.62631,940.08967 C 606.27462,940.6801 608.59402,941.09593 607.16088,942.56733 C 608.15643,942.92185 609.12196,943.30703 609.46538,944.31328 C 611.22816,944.21732 611.95051,945.16227 613.22669,945.55278 C 614.14771,946.10056 615.8124,945.90464 615.99389,947.19211 C 617.25396,948.14506 618.58437,946.56437 619.75521,947.60661 C 620.65794,948.04776 621.29047,948.75947 622.13744,949.25794 C 621.70946,951.1665 622.79792,951.55834 623.28705,952.54993 C 624.63927,952.6259 624.83488,953.85873 625.51907,954.60376 C 625.78501,955.80861 627.72781,955.3368 628.281,956.25509 C 629.96767,956.01119 630.40953,957.01212 630.97045,957.89309 C 632.15651,958.27294 633.22451,958.77007 634.42455,959.13525 C 634.56615,960.90653 637.86627,959.5191 639.33996,959.95892 C 640.44632,959.61906 641.02355,958.74874 642.0302,958.30759 C 644.35885,958.30759 646.6875,958.30759 649.01615,958.30759 C 649.70562,957.57322 650.31599,956.75889 650.93568,955.94722 C 651.59762,955.28082 652.46408,954.81834 653.16243,954.18927 C 654.3175,953.61617 655.62121,953.17901 657.54494,953.37626 C 659.72702,953.68014 660.8435,952.91778 662.76685,952.96176 C 664.31107,953.24432 666.98178,952.40066 667.83177,953.37626 C 669.07119,952.78717 671.08965,952.97776 672.9027,952.96176 C 674.03129,953.46556 675.38103,953.74944 676.97349,953.78943 C 678.04648,954.2759 679.32648,954.55578 680.11888,955.32347 C 680.75801,956.05517 681.8536,956.33106 681.65872,957.89842 C 681.11085,959.08861 681.22354,960.34409 682.35089,960.78658 C 683.25182,961.22374 683.5151,962.2993 684.72787,962.42458 C 684.73235,963.68807 687.86273,963.4455 688.56692,962.94437 C 690.13951,962.95103 691.18398,962.42991 692.0263,961.70487 C 691.74857,959.95758 693.0035,959.74167 693.86808,959.13525 C 695.27911,958.92334 695.36346,957.3853 697.09422,957.49325 C 698.69704,957.7025 698.64064,956.25109 699.62667,955.84193 C 700.12342,954.91697 701.21492,954.58777 702.23838,954.18927 C 703.38741,953.75078 703.9129,952.68988 705.77172,952.96176 C 707.27744,953.15635 708.54265,953.59084 710.45696,953.37626 C 711.37639,954.2639 713.23599,954.21059 715.06367,954.18927 C 715.86668,955.16354 718.48516,954.32254 719.98136,954.60376 C 720.95873,954.01067 722.71898,954.19993 723.05128,952.96176 C 723.45257,952.01948 724.64763,951.86888 725.43351,951.31044 C 726.39516,950.81064 726.67291,949.62712 727.35306,948.84477 C 728.31373,947.85051 729.52023,949.37389 730.34972,948.01844 C 730.96264,946.9682 730.80871,945.15161 730.80716,943.48695 C 731.65568,942.74859 732.83106,942.33809 734.34051,942.26079 C 735.24927,941.53575 737.61654,942.27012 738.4128,941.43312 C 740.5306,941.09326 741.35909,942.04221 743.33049,941.84762 C 744.34053,942.47403 745.48413,942.96717 747.01257,943.07512 C 748.69585,942.75792 748.56852,943.02847 750.3927,942.67528 C 751.36927,943.90945 753.04368,941.9849 754.08153,943.07512 C 755.06221,941.87694 756.61403,943.6229 757.53564,942.67528 C 758.32111,943.27771 758.45793,942.66995 760.06959,942.67528 C 760.92637,943.45497 762.46152,943.55759 763.44973,944.20666 C 764.77887,944.23198 767.45481,944.6798 768.44368,944.00674 C 770.53144,943.75618 773.0853,943.97076 775.35187,943.89879 C 775.95836,943.03647 776.66916,942.27811 778.12056,942.26079 C 779.76403,942.48469 782.2911,941.82363 783.41497,942.56733 C 783.95055,942.14617 786.29937,942.53934 786.10442,941.02129 C 786.94484,940.32157 788.59458,940.43086 789.48603,939.78179 C 790.41797,939.25667 792.09487,939.47525 792.63291,938.55563 C 793.01363,937.41209 794.48638,937.36145 795.55187,936.90163 C 796.54282,936.4005 797.69815,936.06331 798.39154,935.26363 C 800.12774,935.21299 800.93059,934.22939 802.92425,934.43597 C 804.64341,934.6159 804.93036,933.36307 806.3044,933.19781 C 807.56527,932.2262 809.12884,933.23113 810.68012,933.19781 C 812.72924,933.19781 814.77835,933.19781 816.82746,933.19781 C 816.91216,933.76957 819.29325,933.06986 819.51165,932.37014 C 821.07961,932.16223 823.52454,932.83129 824.42782,931.95831 C 826.20937,932.17689 826.79766,931.21195 827.8872,930.73214 C 829.33759,930.46159 831.13656,931.9823 832.18371,930.73214 C 833.01178,930.12839 833.79287,929.47932 834.41046,928.66632 C 834.71762,927.60275 835.01919,926.53385 835.64307,925.78749 C 837.09776,925.70752 836.89173,923.9669 839.02093,924.56132 C 841.04877,924.21213 841.13043,925.80881 843.24495,925.37299 C 844.16836,925.61689 846.7845,926.38058 847.54523,925.37299 C 849.29341,925.1904 850.23904,925.81015 850.99933,926.61515 C 852.27677,927.00566 853.73314,927.21757 854.76591,927.85332 C 856.46167,927.77201 858.59688,928.13054 859.68212,927.43882 C 859.99652,926.18866 862.25189,926.88038 863.13622,926.20065 C 863.8839,925.45562 865.44084,925.5196 865.97588,924.56132 C 866.75663,923.80163 867.87017,923.37514 869.05028,923.01528 C 870.19869,922.49683 871.96897,922.60079 873.11881,922.08366 C 873.56222,921.15071 873.94657,920.15911 875.19385,920.02983 C 875.97268,919.36877 876.2606,918.21724 877.03562,917.55217 C 877.82604,916.89911 879.02842,916.65787 879.72508,915.91018 C 880.09889,915.05852 881.04084,914.77464 881.3374,913.84435 C 882.28659,913.23926 883.71783,913.11665 883.94912,911.79318 C 884.17107,910.47772 886.49657,911.26407 887.32546,910.55502 C 887.75371,909.64206 888.91288,909.45947 889.40049,908.60648 C 890.07859,907.92143 891.38926,907.86811 891.32003,906.43536 C 892.43943,905.85027 894.28914,905.99421 895.62328,905.62369 C 895.92436,904.37087 896.50585,903.39927 897.0839,902.42366 C 897.8745,901.99184 898.1395,901.03489 899.00342,900.67771 C 899.66937,899.76075 899.72073,898.22804 900.46023,897.38438 C 900.25679,895.65842 902.47345,896.35147 902.45753,894.81209 C 902.91643,893.83116 903.63062,893.10612 903.99209,892.02923 C 905.04193,891.764 905.45737,890.86303 906.29659,890.38723 C 906.24532,888.99846 907.58781,889.00379 907.83115,887.90957 C 909.1417,887.75497 908.95984,886.1223 909.75596,885.44391 C 910.48553,884.41099 910.03612,882.19989 910.52062,880.92308 C 911.07734,879.9648 912.1008,879.47433 911.67548,877.53512 C 911.14035,876.47822 911.53898,874.48836 910.52062,873.91526 C 910.23941,872.72108 909.74209,871.73215 909.37098,870.62327 C 908.37437,870.18212 908.26643,868.85199 907.52393,868.15761 C 907.606,866.31302 907.17405,864.9829 907.06652,863.3289 C 907.0365,861.51897 906.41911,860.2968 906.68155,858.19499 C 907.39428,857.39798 907.32829,854.92832 905.98937,854.97764 C 904.89138,854.02336 906.15033,852.74921 905.91161,851.28447 C 905.00758,850.32086 905.79789,847.66328 905.53195,846.0626 C 905.58283,844.64851 904.1128,843.90214 905.14699,842.63466 C 906.52274,842.39209 906.1991,840.45021 906.29659,838.9295 C 907.45425,837.86727 906.10186,835.91473 906.29659,834.5153 C 906.3639,832.91328 905.96421,830.84479 907.06652,830.27835 C 907.62428,829.54265 906.72127,827.80869 907.06652,826.08673 C 907.29231,824.45406 906.62759,821.92975 907.37374,820.81554 C 907.73069,819.73997 908.86558,818.73238 907.45145,817.93804 C 906.28228,817.49022 906.22029,815.93486 906.29659,814.24088 C 905.31188,813.73842 905.98176,811.58063 905.14699,810.92889 C 904.73229,809.79336 904.2346,808.74178 903.99209,807.43432 C 902.75844,807.15176 903.65332,804.74074 902.84249,804.0357 C 902.79332,802.14713 902.78162,800.29722 903.22743,798.90312 C 903.28584,797.18915 903.85789,795.98964 903.60712,793.96646 C 904.27187,793.06683 904.02446,791.25423 904.68427,790.34927 C 905.72768,788.90052 904.26576,788.75658 904.37705,787.0666 C 903.77059,786.24694 903.80456,783.76528 904.37705,782.94028 C 902.95815,782.63241 903.86059,780.00414 903.60712,778.53141 C 903.01563,777.53448 902.83456,776.12572 902.45753,774.91422 C 903.01978,772.68979 901.41279,772.63648 901.68759,770.69993 C 902.54192,770.03353 901.95968,767.93039 902.84249,767.29198 C 902.77837,765.60467 903.17711,764.37984 903.60712,763.18699 C 905.35591,763.35625 904.87516,761.29576 905.4542,760.29483 C 905.70767,758.93005 905.77447,757.37868 906.29659,756.28313 C 905.79589,754.97566 905.89767,753.06577 905.91161,751.24385 C 906.82661,750.28957 906.02815,747.62265 906.29659,746.02197 C 906.6907,744.91842 908.02156,744.75182 908.60108,743.83486 C 909.32345,742.81661 908.56084,740.3123 909.29326,739.30337 C 909.38572,737.78666 910.25451,737.02963 910.13565,735.301 C 910.64521,734.62794 911.33573,732.80868 910.52062,731.99834 C 909.8112,730.90146 910.25749,728.64771 910.13565,726.96306 C 910.90867,726.14606 910.29438,723.94162 911.29052,723.34853 C 911.80322,722.38093 911.83006,720.92818 912.44014,720.05787 C 912.58995,718.71975 914.26174,718.90367 914.74465,717.90008 C 914.97421,716.49932 914.1302,714.02566 915.51455,713.78042 C 915.94782,712.91544 916.65574,712.32502 917.35633,711.72659 C 917.92819,710.75099 918.31562,709.59013 918.19875,707.92547 C 918.52164,706.50472 918.70481,704.94402 918.58371,703.07811 C 919.69663,702.86753 919.49703,701.34282 920.50321,701.02561 C 920.93045,700.11265 921.82688,699.67017 922.04308,698.54662 C 922.76164,697.94154 922.99826,696.85398 923.9626,696.49413 C 924.5224,695.50653 926.21373,695.64914 926.95398,694.8428 C 927.97146,694.39098 929.22403,694.17374 929.72121,693.2008 C 930.93518,692.98489 930.97905,691.59745 931.94795,691.13497 C 932.47034,690.28998 933.33913,689.79019 933.17529,688.25748 C 934.02667,687.51511 933.27073,685.1654 934.25241,684.55232 C 934.18308,682.71973 934.60318,681.37628 934.71513,679.72362 C 934.71529,678.09361 934.45572,676.20238 935.4798,675.59463 C 937.15502,675.38805 935.41839,673.72206 935.09483,673.12897 C 933.89795,672.76112 932.7598,672.33462 933.17529,670.3541 C 932.6883,668.63746 933.93496,666.93549 933.25305,666.02652 C 932.75758,664.19927 933.83558,663.27031 933.56027,661.41107 C 933.92425,660.06895 935.73221,660.87795 936.2497,661.49503 C 937.07759,661.95351 938.57566,663.26631 939.70382,662.42665 C 940.91666,661.95618 943.62772,662.98376 943.92782,661.60032 C 944.79053,661.13918 945.45885,660.48478 946.15457,659.85703 C 947.21831,659.35324 948.50895,659.07735 949.30672,658.30833 C 950.67596,658.52691 950.89508,655.99327 949.76417,655.73738 C 948.96469,655.06565 949.10573,653.45431 948.53682,652.55201 C 947.01479,652.2508 948.4528,650.06768 947.84464,649.56655 C 947.42238,648.51765 947.1925,647.27549 946.31007,646.68639 C 945.70525,645.66947 945.83417,644.25005 946.53953,643.3824 C 946.99526,641.73774 945.40609,641.50184 945.46769,639.99445 C 946.63941,639.11481 945.72407,638.38044 945.84735,636.60783 C 945.27762,635.47096 945.4999,633.54241 945.46769,631.86842 C 946.42232,631.49391 946.70731,630.45033 947.38719,629.8026 C 947.86867,628.66839 948.534,627.71944 948.53682,626.1081 C 948.96463,623.94765 947.50666,623.67309 947.76689,621.68057 C 946.86422,621.0195 945.55136,620.76894 944.00407,620.75161 C 943.27846,620.11454 943.09418,618.93502 942.39326,618.27395 C 942.01044,617.17573 941.96473,615.74032 941.24366,614.98063 C 941.31458,613.46258 940.59867,612.73088 939.78155,612.10047 C 939.43248,611.10487 938.33062,610.8623 937.39929,610.44914 C 937.39929,607.97948 937.39929,605.50848 937.39929,603.03749 C 936.30191,602.74294 935.98098,601.38749 936.63466,600.37191 C 937.73498,598.78055 935.95575,598.72324 935.86473,597.2825 C 934.94989,596.68274 934.53294,595.58585 932.56463,596.04034 C 931.07616,596.06166 930.54961,595.11938 930.10617,594.09446 C 929.35216,592.92427 928.47664,593.32011 926.95776,593.57467 C 926.02771,593.20682 926.19961,591.73542 925.1122,591.52351 C 924.35327,590.6412 923.2525,590.10142 921.42714,590.28534 C 920.93581,590.93041 919.47166,592.43114 918.96865,590.69718 C 918.06905,589.91349 916.58374,589.71624 914.74691,589.87085 C 914.61185,588.42477 912.14882,589.30707 912.05518,587.81968 C 910.84796,587.50381 910.27766,586.5522 909.75596,585.55127 C 910.51627,584.30111 909.71479,583.31751 909.06377,582.46053 C 908.58894,581.61687 907.83146,581.05443 907.06652,580.49999 C 905.72756,580.37071 905.02685,579.60302 903.99209,579.16853 C 902.88287,578.82068 902.49816,577.74911 901.68759,577.10271 C 901.0584,576.26038 901.09692,574.75166 900.15302,574.22521 C 899.00569,573.928 897.78188,573.70942 897.46356,572.58321 C 896.0444,572.43794 895.96389,570.95454 894.00946,571.34505 C 893.54353,570.24683 891.56797,570.65733 890.55537,570.10555 C 889.70903,569.40717 888.57621,568.99401 887.5587,568.46622 C 886.91304,567.45863 884.94778,568.4329 884.7915,569.29389 C 883.84186,569.87765 882.75007,570.3188 881.72238,570.82526 C 881.30491,571.56763 878.64735,571.75022 878.64797,570.51739 C 877.46745,570.1642 876.06272,570.03625 875.2716,569.29389 C 874.45156,568.75944 874.65736,567.19874 873.27431,567.22806 C 873.10088,566.07653 871.628,566.2258 871.35478,565.17423 C 870.5765,564.40787 870.22753,563.21369 869.81494,562.08215 C 869.27735,561.14787 868.70702,560.2469 868.28038,559.20199 C 867.75479,558.32235 867.11361,557.55999 866.74582,556.52308 C 865.76695,556.03128 866.00132,554.32664 865.21126,553.64559 C 864.94344,552.32879 864.34758,551.33986 863.74914,550.35359 C 863.54467,549.05146 862.61575,548.47302 862.52179,547.06027 C 861.6535,546.4885 861.58397,545.11839 860.68001,544.58261 C 860.01536,543.84424 860.05182,542.40616 858.52575,542.52878 C 857.963,541.74909 856.95825,541.41056 856.7632,540.26303 C 855.83542,539.71259 854.97911,539.09018 854.07373,538.51708 C 852.73216,538.38646 852.0436,537.60145 850.99933,537.17362 C 850.44821,536.18602 850.29708,534.79859 848.85034,534.70796 C 848.43652,533.77634 847.26598,533.60174 846.7753,532.74609 C 845.98642,532.16766 845.33102,531.45462 845.24073,530.17647 C 844.25049,529.694 844.50823,527.96537 843.70617,527.29631 C 843.61096,525.80625 843.13407,524.6987 842.55126,523.69644 C 842.28632,522.44495 841.77979,521.43603 841.40168,520.29916 C 840.54211,519.59944 839.9172,518.66515 839.09717,517.92545 C 838.36254,517.04581 839.26973,514.5255 837.64037,514.54017 C 835.36127,515.24388 835.76525,513.26468 834.87317,512.5823 C 834.25292,511.86925 833.89802,510.89098 833.03136,510.42317 C 832.2113,509.88872 832.41713,508.32936 831.03408,508.35735 C 830.11446,507.75759 829.09049,507.26313 828.11519,506.71935 C 827.65234,505.80905 826.64411,505.44253 825.65518,505.06535 C 825.84841,503.53931 824.84484,503.20878 824.12062,502.59969 C 823.92809,501.36153 823.10128,500.74311 822.58605,499.82615 C 821.5905,499.37434 820.28619,499.23173 819.89659,498.17349 C 820.03613,496.70076 818.69877,496.70476 818.36203,495.70783 C 818.01954,494.60961 816.89494,494.29507 816.82746,492.9223 C 816.14526,492.19859 815.34099,491.5975 815.28762,490.24472 C 814.33357,489.8742 814.0552,488.82929 813.3681,488.19355 C 813.23962,486.89941 811.48243,487.23528 811.0636,486.23168 C 810.93141,484.85758 810.49397,483.78868 809.52903,483.24757 C 808.80699,482.64514 808.57763,481.55092 807.60949,481.1964 C 807.28219,480.05153 807.0288,478.83336 806.07493,478.31624 C 805.77924,477.13405 805.12906,476.30639 804.53507,475.42275 C 804.48671,473.74477 803.71111,472.79449 803.77043,471.00855 C 803.97796,469.29458 803.35673,466.75028 804.07765,465.5481 C 804.43513,464.43522 805.11511,463.64354 805.61221,462.67061 C 805.11603,460.5568 808.68311,462.50667 807.99443,460.19961 C 806.82377,459.25866 808.54859,457.25947 807.68722,456.48512 C 807.17101,456.08129 805.40855,454.11542 805.68997,456.48779 C 804.7841,458.11779 803.73313,456.86897 804.92003,455.56283 C 804.07496,455.53084 802.2166,453.28776 802.61553,455.67345 C 800.37857,455.94534 802.87272,453.4357 800.46655,453.60763 C 799.40798,451.91898 798.80834,454.5739 798.39154,452.77996 C 796.74753,452.46409 798.55807,450.6355 797.62688,450.00776 C 797.37387,448.75227 796.68533,447.9326 796.08704,447.02231 C 796.03396,445.48293 795.3063,444.61928 795.01517,443.31715 C 794.65902,442.3802 793.52387,442.22159 793.40285,441.05007 C 792.70092,440.2384 793.24778,438.17791 791.94076,437.97132 C 791.41174,437.17298 790.64904,436.60654 790.32843,435.59895 C 789.68291,434.88458 788.95414,434.25417 788.40891,433.43983 C 787.57517,432.98135 787.06171,432.20167 786.48937,431.48196 C 786.02646,430.47571 784.10711,430.92619 783.41497,430.1505 C 782.48454,429.66004 781.52144,429.20422 780.80852,428.49651 C 779.24557,428.49385 778.36801,427.80479 777.34915,427.25702 C 775.27277,427.50625 773.99473,426.95847 772.28274,426.84252 C 771.83934,425.88424 770.83477,425.48707 770.7429,424.17694 C 770.41138,423.07338 769.22274,422.82549 769.20832,421.40473 C 768.98485,420.0093 768.87627,417.19977 768.90111,417.7942 C 768.14646,416.62534 768.66705,415.50846 768.82336,414.09037 C 769.87358,413.23206 767.85772,412.15916 766.52264,412.43638 C 764.95588,412.36174 764.95732,410.71441 764.98429,409.05909 C 764.31163,408.10081 764.7441,406.03632 764.21964,404.9301 C 763.45986,404.10644 763.9173,402.06593 763.06477,401.33423 C 763.37739,399.21243 762.50173,398.27947 762.6798,396.29095 C 762.72408,394.47169 762.75143,392.66842 762.29485,391.35029 C 762.364,389.611 762.04729,387.48653 762.6798,386.31101 C 762.65174,384.67701 762.37607,383.28957 761.91515,382.0874 C 761.91515,380.12819 761.91515,378.17032 761.91515,376.21112 C 761.00015,375.25684 761.79862,372.58993 761.53018,370.98925 C 761.26565,369.43654 762.05544,366.8296 761.14523,365.92197 C 760.16004,364.74512 761.32827,363.35369 761.14523,361.80232 C 762.4329,361.11993 761.63923,359.45394 761.53018,358.10782 C 762.23167,357.36012 763.0059,356.58311 762.29485,355.43291 C 762.14439,354.0668 761.54702,353.14717 761.14523,352.03296 C 760.75309,350.64819 760.98128,348.64367 760.45307,347.39618 C 760.25099,345.94877 759.69482,344.85455 759.61067,343.28985 C 758.99352,342.27693 758.88632,340.75621 758.84074,339.17286 C 758.10492,338.43316 758.20517,336.85647 757.30618,336.27937 C 757.23682,334.86794 755.86692,334.75599 756.15129,332.99004 C 755.51099,332.20369 754.9966,331.29073 753.92454,330.93621 C 753.2019,330.29514 753.01152,329.12228 752.31224,328.45855 C 752.22018,327.11377 751.00977,326.88852 750.77766,325.68501 C 750.14284,324.95464 749.03925,324.69208 749.24307,323.12206 C 748.0638,322.95946 748.72492,320.95494 747.70324,320.63374 C 747.50487,319.39691 746.68094,318.78515 746.16868,317.86153 C 745.29644,317.29776 745.00173,316.15689 744.63412,315.08799 C 743.81576,314.36562 744.80393,311.83465 743.09953,311.99858 C 742.65931,310.96567 742.36002,309.79148 741.55969,309.11842 C 741.12186,308.25077 740.41514,307.65368 739.71791,307.0526 C 738.36874,306.93931 738.70941,305.13737 738.10559,304.27906 C 737.74708,303.30879 736.97025,302.74768 736.26381,302.12127 C 735.89341,301.26562 734.9408,300.99239 734.65149,300.05544 C 733.61682,299.77556 733.18828,298.88925 732.34701,298.41611 C 731.77538,297.65908 730.72639,297.3792 730.42746,296.35028 C 729.39246,296.0704 728.95699,295.19209 728.12297,294.71095 C 727.98278,293.42081 726.52517,293.44746 726.20345,292.33858 C 725.41221,291.7948 724.8708,291.00046 724.3564,290.17946 C 723.25135,289.94089 722.83492,289.0146 721.97942,288.5268 C 721.7225,287.44857 720.86567,286.9701 720.43958,286.06114 C 719.48557,285.69062 719.20715,284.64571 718.52005,284.00997 C 718.0534,283.02637 717.48399,282.1454 717.06322,281.11648 C 716.84366,279.97695 715.94069,279.52113 715.4509,278.65082 C 715.28278,277.37134 714.2123,276.99549 713.9888,275.77066 C 713.49263,274.8457 712.4043,274.51384 711.37711,274.11933 C 710.66498,273.46759 709.63046,273.13706 708.9224,272.48133 C 708.13636,271.81893 707.35989,271.14854 706.23293,270.82734 C 706.004,269.63982 704.2727,269.95436 703.92844,268.88146 C 702.4236,268.93877 701.81726,268.09645 701.23899,267.22747 C 700.09686,266.92892 699.40303,266.18123 698.55482,265.58813 C 697.51464,265.18163 696.7908,264.45793 695.86536,263.93547 C 694.58962,263.68757 694.12346,262.63067 692.63922,262.59069 C 691.65884,262.10422 691.11021,261.18593 689.87729,260.95269 C 688.89733,260.56085 688.66148,259.42531 687.41732,259.29869 C 686.92094,258.30177 685.83133,257.89793 684.57613,257.65936 C 682.91418,257.68868 681.35058,257.61938 680.50384,256.83303 C 679.02099,256.75173 678.75038,255.45759 677.04973,255.59353 C 676.4593,254.52197 674.61369,254.70456 673.59564,254.05949 C 671.75697,253.81426 669.46084,254.02617 667.44681,253.95553 C 666.75039,254.95113 665.03674,253.62234 664.45541,253.12787 C 663.75802,252.38951 663.56144,250.93676 662.22867,251.88971 C 661.37848,252.77335 659.64456,252.77335 657.85143,252.71337 C 656.45899,253.03857 654.91475,253.38377 653.62514,252.71337 C 653.15786,254.40735 651.91175,252.86798 650.93568,252.71337 C 650.3289,251.84972 649.62132,251.09003 648.17226,251.07537 C 647.50533,250.18374 646.82011,249.30943 645.56205,249.00955 C 643.68295,249.20413 642.83529,248.36847 641.33803,248.18188 C 640.75081,247.44618 639.72357,247.1503 639.4185,246.13072 C 638.10167,246.02676 637.96839,244.73795 636.80679,244.47806 C 636.01207,243.59308 633.5499,244.37677 632.88998,243.35851 C 631.98555,242.90803 631.03558,242.50419 630.58549,241.59923 C 629.22279,241.54592 628.83186,240.51967 627.97378,239.96123 C 626.83894,239.64802 625.98002,239.05893 625.28433,238.30724 C 624.98725,237.29032 623.7318,237.23034 623.28705,236.36136 C 622.10997,236.20942 621.94726,235.04456 621.0603,234.60208 C 620.15272,234.04364 618.94897,233.77974 618.29838,232.96408 C 616.90127,232.82013 616.44529,231.73524 615.22396,231.41537 C 614.17958,232.27636 613.90638,230.49975 612.15333,230.89825 C 609.84934,230.89825 607.54535,230.89825 605.24136,230.89825 C 604.91198,231.89651 603.90876,232.22171 603.32182,232.96408 C 600.63413,232.96408 597.94643,232.96408 595.25873,232.96408 C 594.22039,232.55491 593.76862,231.55798 592.56928,231.31008 C 591.78169,230.65035 591.00611,229.97729 589.87983,229.65609 C 589.31419,228.80577 587.91197,228.79111 587.57533,227.71021 C 586.73266,226.49338 586.45683,227.24107 584.58245,227.19043 C 583.83258,226.24148 581.33162,227.04382 579.89721,226.77859 C 579.15076,225.76434 576.29008,226.86522 575.44373,225.95226 C 574.23108,225.55243 572.58067,225.59108 571.83413,224.72476 C 570.27421,224.57549 569.11225,224.02905 567.53086,223.9011 C 566.85461,223.20805 564.08057,223.28268 563.38608,223.9011 C 562.66273,224.70077 561.56449,225.12593 560.46716,225.55243 C 559.78201,226.23348 559.13316,226.95052 558.00718,227.19043 C 557.15053,227.88214 555.5989,227.87948 555.01579,228.84442 C 554.61955,229.95863 553.43412,230.28383 551.71041,230.07059 C 550.03676,230.13323 549.34956,229.20827 548.10231,228.84442 C 546.92925,228.33396 544.69407,228.88574 544.1855,227.71021 C 542.78359,227.63958 541.31503,227.63558 541.11108,226.36676 C 539.7062,226.09221 538.8609,225.25788 536.88706,225.55243 C 536.20253,224.7914 534.21524,225.33385 534.20289,223.9011 C 532.83868,223.62121 531.82889,222.98814 530.51404,222.65894 C 529.15147,222.31774 527.30442,222.46035 526.21227,221.84727 C 524.09847,222.16047 523.07466,221.38346 521.22211,221.43543 C 519.72654,221.17021 518.84243,220.29457 516.76862,220.60777 C 515.81363,219.94804 514.1689,219.97603 513.46773,219.06173 C 511.93897,218.9018 511.25192,217.89954 509.31996,218.14211 C 508.55137,217.46372 507.22005,217.34776 506.632,216.48945 C 505.70832,215.94034 504.52036,215.65512 503.8648,214.83812 C 502.43951,214.60888 501.03105,214.36498 500.02574,213.71591 C 498.79509,213.47334 498.13617,212.66034 496.95133,212.37246 C 496.36943,211.14362 492.93942,212.76296 492.34762,211.54479 C 490.50245,211.82868 489.59496,211.17428 488.88824,210.31862 C 487.66758,210.89839 485.6888,210.71979 483.89957,210.73046 C 483.07165,211.39685 482.48232,212.30182 481.0584,212.37246 C 479.17287,212.22052 477.71446,212.49774 476.67888,213.19612 C 475.95049,214.08509 474.49099,214.24369 473.06779,214.43828 C 472.42701,215.55116 470.04047,214.91942 468.92301,215.55783 C 467.99603,216.29886 465.89593,215.86703 464.84921,216.48945 C 463.62114,216.0243 462.22848,215.72442 461.01015,215.24995 C 459.6006,214.90476 458.08082,214.66885 456.55666,214.43828 C 455.51876,213.38404 454.5272,215.28061 452.79535,214.83812 C 450.89233,214.94208 449.91411,214.12241 447.7999,214.43828 C 446.65174,213.82653 444.47696,214.24236 443.34941,213.61062 C 441.35447,214.03978 441.35495,212.47375 439.89003,212.37246 C 439.17185,211.72472 438.15167,211.37953 437.43532,210.73046 C 437.10809,209.72953 436.09807,209.41099 435.51579,208.66463 C 434.2722,208.34743 432.9984,208.05954 432.05642,207.44113 C 431.45125,206.5988 430.21408,206.38822 429.36696,205.78714 C 428.76219,204.94081 428.49331,203.75863 427.06774,203.7333 C 426.07857,203.1642 424.9388,202.74437 424.76325,201.36094 C 423.5859,201.21433 423.42147,200.0548 422.5365,199.61631 C 422.63331,198.02763 420.49467,198.67403 420.53923,197.13599 C 419.31581,196.74815 418.50451,195.94714 416.92814,195.91249 C 416.12439,195.482 413.18481,195.03284 412.47087,195.91249 C 411.75512,196.61087 410.52497,196.79613 409.86444,197.55049 C 409.06521,198.1729 408.41644,198.94459 407.25274,199.20181 C 406.53343,199.84955 405.50439,200.18808 404.79275,200.84381 C 404.52438,202.19126 402.18357,201.46756 401.18166,202.08198 C 400.40541,202.90164 397.74168,202.53646 396.88515,202.08198 C 394.74496,202.39385 393.69086,201.61816 391.81196,201.66748 C 391.18582,200.90112 390.51747,200.17742 389.27951,200.02948 C 387.89405,200.45597 386.41672,200.5466 385.05549,200.02948 C 383.42057,199.95617 382.81687,198.85129 380.75749,199.20181 C 378.6559,198.95525 377.34945,199.50303 375.60955,199.61631 C 374.64106,200.20807 373.03939,200.16676 372.15543,200.84381 C 371.14158,201.44623 369.83262,201.75411 368.54436,202.08198 C 367.42147,202.65241 366.06943,202.99227 364.70529,203.32147 C 363.58609,203.89057 362.23984,204.2331 360.86623,204.54764 C 359.89745,205.22203 358.86656,205.83378 357.17738,205.78714 C 355.59005,205.83245 354.37079,206.24695 353.10509,206.61347 C 351.52464,206.83471 350.11274,207.22388 348.11343,207.02663 C 348.29762,208.93252 345.90284,208.2608 344.89178,208.97251 C 343.12218,208.79391 342.93327,210.19734 341.05121,209.90679 C 339.43106,209.92279 338.83378,210.9637 337.36387,211.13029 C 337.38417,212.64301 336.64492,213.39737 335.67381,213.91849 C 334.76874,214.34632 334.80275,215.71376 333.83203,216.07628 C 333.30292,216.87596 332.53241,217.4344 332.21971,218.44998 C 330.5829,218.38468 329.32943,218.70188 329.14528,220.08932 C 328.63845,221.06359 328.1958,222.10183 326.45963,221.84727 C 325.35564,222.38172 323.92079,222.5843 322.77229,223.07343 C 321.80023,223.66786 320.48073,223.91443 319.3129,224.31293 C 318.40151,224.76075 317.58401,225.31386 316.85819,225.95226 C 316.74362,227.29438 315.59688,227.60359 314.5537,228.01809 C 314.01786,228.92972 313.91193,230.28117 312.2492,230.07059 C 311.37819,230.61437 311.86411,232.51359 310.48518,232.54958 C 309.22283,233.02272 307.65805,233.19332 306.10415,233.37591 C 305.38163,234.07029 304.16148,234.26621 303.49395,235.01524 C 302.39122,235.3591 301.80861,236.22542 300.80449,236.6679 C 300.73339,238.10332 300.65144,239.52807 299.57714,239.96123 C 299.54506,241.38998 297.24774,240.55432 297.6576,242.42689 C 296.6252,242.71744 296.84637,244.26215 295.73808,244.47806 C 295.26351,245.34171 294.65202,246.06808 294.2035,246.95838 C 291.75366,246.16537 293.31302,249.3814 291.28459,249.00955 C 290.3993,249.57199 289.7944,250.41431 288.59513,250.66221 C 286.77611,250.4303 286.17459,251.4139 285.06327,251.88971 C 283.81807,252.06564 283.62562,253.29314 282.45158,253.54104 C 281.72297,254.28074 280.53118,254.55796 279.68438,255.17904 C 278.57823,255.41627 278.16469,256.34656 277.30742,256.83303 C 277.23027,258.19381 275.99228,258.3924 275.76756,259.60657 C 275.16205,260.51553 275.34323,262.21351 274.61796,263.00385 C 274.56323,264.38996 273.63842,264.90575 273.08339,265.79072 C 272.39032,266.51442 270.78005,266.32117 270.7789,267.73659 C 270.0928,268.31236 269.70294,269.18267 268.85936,269.60117 C 268.27542,270.34087 267.24001,270.63008 266.93983,271.65367 C 265.54463,271.87624 264.89827,272.84651 263.32874,272.89316 C 261.60999,272.77721 260.14535,272.91449 259.6414,274.01271 C 258.77304,274.78706 256.6288,274.28726 256.56699,275.86795 C 255.93189,276.6423 255.5906,277.7112 253.88131,277.41266 C 253.10713,278.203 250.74913,277.41132 250.42344,278.65082 C 248.37558,278.65082 246.32773,278.65082 244.27987,278.65082 C 243.69385,279.46382 240.70104,279.17327 240.05584,278.65082 C 239.6336,277.74052 238.74138,277.29937 238.52128,276.18516 C 236.97645,276.13184 238.6065,278.3736 239.13571,278.65082 C 239.46977,280.05025 237.42311,279.849 238.52128,281.63894 C 239.5866,282.1374 240.8267,282.45994 240.4408,284.40981 C 241.01625,284.98158 242.26565,286.35435 240.90352,286.88747 C 239.39079,286.91812 239.62546,285.20015 238.52128,284.82164 C 238.12413,286.11845 236.55952,286.24773 234.67924,286.06114 C 233.02738,286.06114 231.08784,285.78125 230.53594,286.88747 C 229.76853,286.5716 227.98968,285.76792 228.8459,284.82164 C 229.35234,283.62346 232.62345,285.18949 233.14765,284.00997 C 233.62115,283.39955 235.69873,282.95174 234.75997,281.94415 C 235.3456,280.58736 234.76579,279.71039 233.91231,278.86407 C 233.08221,278.7881 231.96633,279.841 230.68617,279.06398 C 228.86906,278.92937 228.72833,280.47008 226.46592,279.89031 C 225.31557,280.2515 224.06064,280.5074 223.15976,281.11648 C 222.87719,282.25602 221.57319,282.37197 220.85525,283.07569 C 220.23163,283.21696 218.29035,281.77621 217.78613,282.76781 C 215.88296,282.81846 214.01294,282.83578 212.64045,282.35598 C 211.60819,281.62694 209.44738,282.02678 208.1832,281.52965 C 207.61445,280.77396 206.56292,280.50207 206.26367,279.47848 C 204.99509,279.1986 203.97092,278.67481 203.57951,277.51661 C 202.12637,276.62231 201.89552,279.43717 200.89004,278.34428 C 199.63294,278.10837 199.48762,276.75959 197.74166,277.01282 C 197.04392,277.68721 194.30895,277.60458 193.59161,277.01282 C 194.49033,275.44679 193.38075,274.94299 192.13477,274.53249 C 191.24385,273.76081 189.67546,274.3459 189.36757,275.35883 C 187.93492,275.58407 186.99887,276.30644 185.21979,276.18516 C 184.15108,276.30244 183.50837,278.09904 184.37892,278.95869 C 185.75315,279.09197 185.69224,280.65934 185.91349,281.94548 C 185.63288,283.44087 186.46108,286.04514 185.52852,286.88747 C 186.23722,288.52014 184.05936,291.10575 186.37241,290.59263 C 187.65859,291.74816 188.54439,289.84893 189.36757,290.48734 C 190.10531,290.8152 191.73518,291.8801 190.6002,293.05829 C 190.90885,294.77359 189.19025,294.46172 189.36757,296.04507 C 189.54294,297.2819 186.82537,295.9078 186.68339,295.12412 C 189.07144,295.69055 188.69058,294.14052 187.21859,293.88462 C 186.73686,291.90543 186.39594,294.74694 184.99185,294.29645 C 183.72903,294.62965 182.52176,295.01883 182.45938,296.55287 C 181.865,297.65509 181.62512,299.11183 181.68946,300.87378 C 181.8388,302.79833 181.58102,304.31638 181.30448,305.81577 C 180.89909,307.15522 181.14417,309.14374 180.61231,310.35658 C 180.89166,312.00525 179.78791,312.27047 179.38496,313.23675 C 177.9167,313.36869 178.5935,315.64377 177.46543,316.11557 C 177.62071,317.75091 177.46908,319.0797 176.31583,319.40757 C 175.65463,320.29521 175.55582,321.74528 175.16093,322.89948 C 175.19531,324.26959 176.11927,324.74939 176.69552,325.57839 C 177.52127,325.82362 178.18407,327.91211 177.46543,328.45855 C 177.51157,329.89663 178.09088,330.80293 178.61506,331.76254 C 179.31019,332.51423 179.7809,333.48984 180.07714,334.64137 C 180.05183,336.18208 180.74214,337.00707 180.91952,338.3452 C 181.91209,338.82633 181.18565,341.02677 182.45938,341.22536 C 182.15023,343.33783 183.01632,344.27478 182.83908,346.25398 C 182.15951,348.01459 184.24794,349.01685 183.22402,349.87384 C 183.2708,351.72508 183.29053,353.54967 182.83908,354.90246 C 182.78299,356.5098 182.40483,357.79461 182.07442,359.12741 C 181.81382,360.41888 182.03101,362.18883 180.91952,362.62998 C 181.74839,364.14403 180.7062,364.90772 180.53986,366.4311 C 180.47118,368.17439 180.78662,370.30019 180.1549,371.47971 C 179.58114,372.60725 180.15579,374.88233 179.38496,375.81128 C 179.4543,377.28135 177.91449,377.14141 177.85039,378.47686 C 177.27252,379.60441 177.49823,381.53562 177.46543,383.20827 C 176.4956,383.66942 176.4781,385.08351 175.23868,385.2741 L 175.16093,385.2741 z"
       id="path3420" />
  </g>
  <g
     id="layer7"
     style="display:inline">
    <path
       style="fill:none;fill-rule:evenodd;stroke:#60a5fa;stroke-width:1px;stroke-linecap:butt;stroke-linejoin:miter;stroke-opacity:1"
       d="M 647.35626,869.60124 C 647.99808,868.24294 646.64915,866.35033 646.64915,864.29794 C 646.64915,862.3498 645.06898,860.89469 644.17428,859.70175 C 643.15113,858.33755 642.12767,857.02274 641.34585,855.45911 C 640.64286,854.05312 641.87133,851.22616 642.40651,850.15581 C 643.50177,847.96529 643.92691,847.42452 645.94205,845.91317 C 647.66434,844.62145 647.89979,843.95543 649.12403,842.73119 C 650.3244,841.53081 650.51673,839.59222 651.24535,838.13499 C 651.92718,836.77133 651.24535,835.01516 651.24535,833.18525 C 651.24535,831.41748 651.24535,829.64971 651.24535,827.88194 C 651.24535,826.54399 653.93067,825.33762 654.78088,824.69996 C 655.60278,824.08354 655.28944,820.74297 655.48799,819.75022 C 655.82264,818.07694 656.77933,816.70618 657.25575,814.80047 C 657.49319,813.85074 654.6357,811.68168 654.07377,810.55783 C 653.38501,809.1803 653.72022,806.89513 653.72022,805.25453 C 653.72022,802.55343 655.89594,803.18761 653.36667,800.65833 C 652.40511,799.69678 651.97589,797.21654 651.5989,795.70859 C 651.20684,794.14034 651.27576,791.69784 651.5989,790.40528 C 652.01668,788.73415 652.95388,787.34177 653.72022,785.80909 C 654.75425,783.74104 653.89141,782.95833 653.36667,780.85934 C 652.83897,778.74856 654.78088,777.78368 654.78088,775.9096 C 654.78088,774.92638 653.01311,772.92884 653.01311,770.95985 C 653.01311,769.57523 654.53352,766.85837 655.13443,765.65655 C 655.79493,764.33555 655.48799,761.92817 655.48799,760.35325 C 655.48799,758.64116 652.78096,757.29267 651.95245,756.46416 C 650.38531,754.89701 649.83113,755.44149 649.83113,752.57507 C 649.83113,750.81894 649.3937,749.37505 649.83113,747.62532 C 649.83113,744.55619 651.81811,744.26422 649.83113,741.61492 C 648.59803,739.97078 647.14905,739.21321 645.58849,738.43294 C 643.7079,737.49264 642.40637,738.78635 640.9923,737.37228 C 639.53334,735.91331 639.1237,735.15012 637.81032,733.83674 C 636.62211,732.64853 637.87187,729.70145 638.16387,728.53344 C 638.63963,726.63041 639.1521,725.28763 639.57809,723.58369 C 640.03438,721.75853 639.25661,719.82292 638.87098,718.28039 C 638.42405,716.49268 638.16387,714.84646 638.16387,712.97709 C 638.16387,711.23311 637.83894,709.14526 637.10321,707.67379 C 636.29068,706.04873 635.689,705.47165 635.689,703.0776 C 635.689,701.63293 637.53863,699.43291 638.51743,698.12785 C 639.86385,696.33262 639.61273,694.66161 638.87098,693.1781 C 638.12807,691.69228 637.75173,689.87895 637.10321,688.58191 C 636.33679,687.04907 636.19848,685.35823 635.33544,683.63216 C 634.62069,682.20265 635.01882,679.89079 634.62834,678.32886 C 634.24291,676.78713 634.62834,674.62414 634.62834,673.02556 C 634.62834,670.96944 635.98343,669.54914 637.10321,668.42936 C 638.66671,666.86587 639.60943,666.5989 640.63875,664.54028 C 641.48109,662.85559 641.86706,661.67537 641.34585,659.59053 C 640.89068,657.76983 638.51743,657.72575 638.51743,655.52466 C 638.51743,653.59725 639.22453,651.1715 639.22453,649.33748 C 639.22453,647.8693 637.82384,646.2096 637.45677,644.74129 C 636.99149,642.88017 636.74966,641.47291 636.74966,639.43799 C 636.74966,637.56113 636.38915,636.92832 636.04255,635.19535 C 635.66253,633.2952 639.11445,630.70924 639.93164,629.89204 C 641.05339,628.77029 641.16249,626.54646 641.87619,625.11907 C 642.90985,623.05176 643.93359,623.29487 645.58849,622.46742 C 647.64262,621.44036 648.88394,619.76561 649.83113,617.87123 C 650.54204,616.44941 650.50467,614.11643 650.89179,612.56793 C 651.06378,611.87997 654.71235,609.95055 655.13443,609.7395 C 656.90616,608.85364 657.43372,607.96935 658.31642,606.20397 C 659.21746,604.40187 659.24571,602.84359 660.43774,601.25422 C 661.75008,599.50443 663.27323,598.68566 665.03393,597.36513 C 666.75703,596.07281 667.63074,595.55264 668.92302,593.8296 C 670.0224,592.36375 670.93711,591.0263 671.75144,589.94051 C 672.61661,588.78696 672.78916,589.15075 673.87276,588.87985"
       id="path3433" />
    <path
       style="fill:none;fill-rule:evenodd;stroke:#60a5fa;stroke-width:1px;stroke-linecap:butt;stroke-linejoin:miter;stroke-opacity:1"
       d="M 700.74282,622.82098 C 700.87893,621.24353 701.64373,619.71887 703.9248,618.57834 C 706.03059,617.52544 707.55054,616.99098 706.39968,614.68925 C 705.4377,612.76529 705.4958,611.1937 706.39968,609.38595 C 707.25423,607.67683 707.79692,605.88436 708.521,604.4362 C 709.29616,602.88588 710.0272,602.02672 711.70298,601.60777 C 713.40757,601.18163 714.08235,599.88776 715.59206,599.1329 C 716.61337,598.62225 717.23736,595.48876 717.71338,594.53671 C 718.36684,593.22979 721.53268,592.98061 722.66313,592.41539 C 724.56585,591.46402 725.85944,592.03318 726.90577,589.94051 C 727.65308,588.4459 727.55975,586.61749 727.96643,584.99076 C 728.38039,583.33494 730.22932,583.22371 729.7342,580.74812 C 729.70172,580.5857 731.96365,577.84075 732.20907,576.85904 C 732.84762,574.30483 733.03727,574.50039 735.39105,573.3235 C 737.38724,572.32541 738.70555,574.16312 739.6337,575.09127 C 741.02966,576.48723 742.43111,576.50548 744.58344,576.50548 C 746.64509,576.50548 747.34469,577.40616 749.53319,576.85904 C 751.4943,576.36876 752.56705,575.44482 754.83649,575.44482 C 756.65086,575.44482 758.41216,572.45585 758.72558,571.20218 C 759.00271,570.09367 762.18393,568.09738 762.96822,567.31309 C 764.00224,566.27907 766.61159,565.49141 767.91797,564.83822 C 769.68146,563.95648 771.06179,561.67532 772.51416,560.94913 C 773.99976,560.20633 775.66712,559.63056 777.46391,559.18137 C 779.00563,558.79594 781.16863,559.18137 782.76721,559.18137 C 784.70891,559.18137 785.87925,558.15567 787.3634,557.4136 C 788.68897,556.75081 790.75732,555.13333 791.9596,554.23162 C 793.26422,553.25315 795.20467,553.52451 796.90934,553.52451 C 798.90879,553.52451 800.53897,552.74684 801.85909,551.75675 C 802.90113,550.97522 805.26714,550.72796 806.80884,550.34253 C 807.87324,550.07643 809.84119,546.95663 810.34437,546.45344 C 811.37668,545.42113 812.83497,544.26922 813.1728,542.91791 C 813.75785,540.57773 813.44052,540.17531 815.29412,538.32172 C 816.50608,537.10976 817.18678,535.99285 816.70833,534.07908 C 816.2655,532.30775 816.42352,530.46494 816.00123,528.77577 C 815.65894,527.40662 815.29412,525.66004 815.29412,523.82603 C 815.29412,521.45435 816.27963,520.79435 817.06189,519.22983 C 817.96523,517.42314 819.07902,516.50559 820.59742,514.98719 C 821.79906,513.78555 822.68588,512.20258 823.7794,510.74455 C 824.86451,509.29775 822.86853,506.43748 822.01164,505.7948 C 820.47718,504.64396 818.70514,504.31833 817.41544,503.67348 C 815.37952,502.65552 815.85418,501.49271 816.70833,499.7844 C 817.55362,498.09383 819.28397,499.73492 819.89032,497.30952 C 820.38757,495.32051 818.31012,494.85624 817.41544,493.06688 C 817.18787,492.61174 817.15654,488.84931 817.06189,488.47069 C 816.96169,488.06989 821.78995,486.84673 822.36519,486.70292 C 824.33499,486.21047 825.06548,484.13076 825.90072,482.46028 C 826.93812,480.38549 827.97801,479.69056 829.0827,478.21764 C 830.36412,476.50908 831.13747,475.47795 832.26468,473.975 C 833.46364,472.37639 834.86244,470.62917 835.80022,469.37881 C 836.20167,468.84353 839.24,467.65891 840.04286,467.25748 C 841.7497,466.40407 842.29591,465.63356 844.2855,465.13616 C 846.27927,464.63772 847.95681,463.58617 849.23525,462.30774 C 850.5976,460.94539 852.09241,459.80413 853.12433,458.7722 C 854.47988,457.41666 854.51734,456.30793 855.95276,455.59022 C 856.54966,455.29178 857.33004,453.636 857.72053,453.11535"
       id="path3435" />
    <path
       style="fill:none;fill-rule:evenodd;stroke:#60a5fa;stroke-width:1px;stroke-linecap:butt;stroke-linejoin:miter;stroke-opacity:1"
       d="M 345.42166,741.26136 C 346.93567,741.78107 348.72807,740.69993 350.72496,740.2007 C 352.33659,739.7978 354.03332,738.30656 354.96761,737.37228 C 356.15702,736.18286 357.05451,735.67334 357.79603,734.1903 C 358.3582,733.06597 360.97671,732.77608 362.39223,732.77608 C 364.14206,732.77608 366.22702,731.91935 367.34197,731.36187 C 368.50186,730.78193 370.73307,730.65476 372.29172,730.65476 C 374.15634,730.65476 375.16555,729.67114 376.88792,729.24055 C 377.84416,729.00149 380.86026,729.5941 382.19122,729.5941 C 384.63843,729.5941 385.38036,729.06198 387.49452,728.53344 C 389.03624,728.14801 391.19924,728.53344 392.79782,728.53344 C 394.80371,728.53344 396.50133,727.56557 398.10112,726.76567 C 399.93139,725.85054 401.27076,725.08938 403.05087,724.64435 C 405.42336,724.05123 405.89915,723.24007 408.00061,724.2908 C 409.53712,725.05905 411.82977,724.65934 413.30391,724.2908 C 414.7978,723.91733 415.99628,722.06074 417.193,721.46237 C 418.58921,720.76427 419.17317,718.42155 420.02143,717.57329 C 421.11438,716.48033 421.7892,714.70982 421.7892,712.97709 C 421.7892,711.04434 421.8436,709.33275 422.4963,708.02734 C 423.30739,706.40518 423.33044,704.99992 422.84986,703.0776 C 422.29143,700.84387 420.72854,700.90983 420.72854,698.12785 C 420.72854,696.54589 422.40947,695.51962 423.55696,694.94587 C 424.92886,694.25992 425.36303,693.1398 426.38539,692.11744 C 427.2082,691.29463 427.42881,689.35799 427.7996,687.8748 C 428.28882,685.91792 428.77525,684.67932 429.21382,682.92505 C 429.67578,681.0772 429.92092,679.61597 429.92092,677.62175 C 429.92092,675.56756 428.95279,674.27128 428.15316,672.67201 C 427.4344,671.23448 427.7905,668.81935 428.15316,667.3687 C 428.56355,665.72715 427.46297,663.54728 427.0925,662.0654 C 426.54983,659.89474 424.3562,659.98094 422.4963,659.23698 C 421.1997,658.71834 419.65312,656.70307 419.31432,655.34789 C 418.94431,653.86785 420.44436,652.45008 421.08209,651.81236 C 422.11072,650.78373 422.14275,648.50273 422.14275,646.86261 C 422.14275,645.43167 423.70477,644.27186 423.20341,642.26641 C 422.70418,640.26951 421.20058,639.5584 420.72854,637.67022 C 420.22535,635.65749 421.72474,634.39252 422.14275,632.72047 C 422.69312,630.519 421.85226,629.97612 420.72854,628.47783 C 419.56617,626.92801 421.77488,625.70667 422.14275,624.23519 C 422.2606,623.64593 422.37845,623.05668 422.4963,622.46742 C 422.92452,620.32633 422.2324,620.52036 423.20341,618.57834 C 424.09045,616.80426 425.18823,616.26456 424.61762,613.98214 C 424.19139,612.2772 424.67114,610.30712 424.26407,608.67884 C 423.75472,606.64143 422.88325,606.23736 421.7892,605.14331 C 420.53638,603.8905 420.54835,602.66162 419.66788,600.90067 C 418.72723,599.01937 417.39346,597.4125 416.4859,595.59737 C 415.77221,594.17 415.94359,591.58995 415.42524,590.29407 C 414.67395,588.41586 417.06616,586.29162 418.25366,585.69787 C 419.61692,585.01624 419.8317,583.55066 418.96077,581.80878 C 417.97769,579.84263 417.00171,578.92231 416.4859,576.85904 C 416.03891,575.07109 415.62751,573.60142 413.65747,572.6164 C 412.349,571.96216 410.31154,571.82732 409.06127,571.20218 C 407.79759,570.57034 408.35417,567.082 408.35417,565.89888 C 408.35417,563.71814 410.81693,562.72901 412.24325,561.30269 C 413.42233,560.12361 410.80109,557.30181 410.47549,555.99939 C 410.00621,554.12226 409.41483,552.96134 409.41483,551.04964 C 409.41483,549.5371 407.64706,548.24313 407.64706,546.09989 C 407.64706,544.33212 407.64706,542.56436 407.64706,540.79659 C 407.64706,538.43012 407.92454,537.71604 409.06127,536.2004 C 410.21345,534.66417 412.0993,534.21036 411.53615,531.95776 C 411.02445,529.91095 409.06127,530.34915 409.06127,527.36156 C 409.06127,525.59069 411.9091,524.34666 412.95036,523.82603 C 415.27137,522.66552 415.00816,522.31236 415.42524,520.64405 C 415.49294,520.37323 412.55383,517.37611 412.24325,516.75496 C 411.5201,515.30866 412.49683,512.71227 412.95036,511.80521 C 414.04469,509.61656 412.77825,509.33966 411.8897,507.56257 C 411.20094,506.18504 411.53615,503.89987 411.53615,502.25927 C 411.53615,499.86329 411.99272,498.97427 413.65747,497.30952 C 414.82173,496.14526 417.52851,496.60693 418.96077,496.24886 C 421.17898,495.69431 422.37812,495.06904 421.7892,492.71333 C 421.42646,491.2624 422.81917,490.3612 423.20341,488.82424 C 423.64094,487.07411 422.46981,484.88217 421.7892,483.52094 C 421.03944,482.02144 418.71433,481.15318 417.54656,479.98541 C 416.56235,479.0012 416.83945,476.45966 416.83945,475.03566 C 416.83945,473.59025 418.22313,472.59131 419.31432,471.50013 C 420.75306,470.06138 421.19871,468.90864 422.84986,467.25748 C 424.25379,465.85355 425.48902,464.68142 426.73894,463.01484 C 427.90095,461.4655 428.63194,459.93597 429.21382,458.7722 C 429.97576,457.24832 430.47679,455.89271 430.98158,454.88312 C 431.62302,453.60024 431.96055,451.67435 432.3958,449.93337 C 432.54131,449.35131 432.99755,448.23345 433.1029,447.81205"
       id="path3437" />
    <path
       style="fill:none;fill-rule:evenodd;stroke:#60a5fa;stroke-width:1px;stroke-linecap:butt;stroke-linejoin:miter;stroke-opacity:1"
       d="M 411.18259,434.02347 C 410.20645,434.11304 407.67098,432.26766 406.23285,431.54859 C 404.78161,430.82297 402.40894,432.75344 401.2831,433.31636 C 399.97369,433.97106 397.33702,433.77255 396.33335,434.02347 C 394.53876,434.47211 393.1697,432.97197 391.73716,432.2557 C 390.05283,431.41353 387.98408,433.42513 386.78741,434.02347 C 384.8248,435.00477 383.78272,435.21684 381.83766,434.73057 C 381.2833,434.59198 378.0915,437.84109 377.24147,438.26611 C 374.77404,439.49982 374.12619,438.33281 372.29172,436.49834 C 370.82489,435.03151 369.50695,434.78877 368.40263,433.31636 C 367.27574,431.81384 366.71431,430.63591 365.57421,429.78083 C 363.61906,428.31447 362.74394,426.86263 360.97801,425.53818 C 359.65267,424.54418 357.64611,424.22579 356.02827,423.41686 C 354.1508,422.47813 353.55339,421.31831 353.55339,419.17422 C 353.55339,416.98586 352.95124,415.78234 353.90694,413.87092 C 354.54364,412.59753 356.32763,411.87863 357.44248,411.0425 C 359.22702,409.70409 360.48421,410.12209 362.03867,408.56762 C 363.28847,407.31783 363.32181,405.6478 364.15999,403.97143 C 364.86786,402.55569 367.1347,401.65507 368.04908,400.43589 C 369.24133,398.84622 369.36275,396.94899 369.81685,395.13259 C 370.10396,393.98413 367.6928,390.88449 367.34197,390.18285 C 366.24041,387.97972 365.63566,387.41587 364.15999,385.9402 C 363.08573,384.86594 360.74612,385.2331 359.21025,385.2331 C 357.20115,385.2331 355.45748,385.07127 354.96761,383.11178 C 354.5508,381.44456 354.61405,379.65314 354.61405,377.80848 C 354.61405,377.39731 351.18979,375.09132 350.72496,374.6265 C 349.01067,372.9122 348.4761,371.99499 347.89654,369.67675 C 347.42417,367.78726 348.4148,366.80006 347.89654,364.727 C 347.45257,362.95114 349.24795,361.44267 349.6643,359.77725 C 349.95254,358.62431 349.1644,355.65632 348.9572,354.82751 C 348.55725,353.22773 347.63835,351.67343 347.18943,349.87776 C 346.75468,348.13877 345.44073,346.2498 344.71456,345.28156 C 343.5339,343.70735 341.84488,342.75169 340.82547,341.39248 C 339.78579,340.00624 341.84721,337.22768 342.23968,336.44273 C 343.12031,334.68148 344.42852,333.47528 346.12877,332.20009 C 347.55079,331.13357 348.98919,330.75389 350.01786,329.72522 C 351.21644,328.52663 350.70899,325.77222 350.37141,324.42191 C 349.88038,322.45777 349.39271,321.21421 348.9572,319.47217 C 348.70799,318.47535 348.69387,317.88486 348.25009,316.99729 C 347.57103,314.28107 346.54943,313.31553 345.06811,311.34044 C 344.00543,309.92353 342.23761,309.92209 341.17902,307.80491 C 340.15686,305.76057 338.5347,304.71498 336.93638,303.91582 C 335.03071,302.96298 333.49917,301.21849 332.34019,299.67318 C 331.44014,298.47311 328.81802,298.08887 327.74399,297.55186 C 326.00343,296.68157 324.84757,295.99826 323.1478,294.72343 C 321.64821,293.59873 319.53823,293.02554 317.8445,292.60211 C 315.99495,292.13972 315.1018,291.54145 313.2483,291.54145 C 311.53306,291.54145 309.19493,289.90818 308.29856,288.71302 C 307.49688,287.64411 307.945,284.82149 307.945,283.40972 C 307.945,281.53845 306.24173,280.29223 305.11658,279.16708 C 303.525,277.5755 302.76438,276.19255 300.52038,275.63155 C 299.05336,275.26479 297.40547,273.22374 296.6313,272.44957 C 295.54223,271.3605 293.85749,269.67576 292.74221,268.56048 C 291.7074,267.52567 290.39748,265.50864 289.20667,264.31784 C 287.95053,263.06169 286.74124,262.28727 284.96403,261.84296 C 283.0212,261.35726 281.50648,260.53663 279.66073,260.0752 C 277.89174,259.63295 276.45288,259.17838 274.71099,258.30743 C 273.36609,257.63498 270.87662,257.96756 269.40768,257.60032 C 267.62714,257.15519 265.93418,256.90562 264.10438,256.53966 C 262.07239,256.13326 261.40255,255.479 259.15464,255.479 C 257.85183,255.479 255.50037,255.09577 254.20489,254.7719 C 252.66316,254.38647 250.50017,254.7719 248.90159,254.7719 C 246.95068,254.7719 245.36464,254.50638 243.59829,254.06479 C 242.5372,253.79952 241.95489,253.27418 241.12341,252.65058 C 238.22451,251.92586 237.38146,252.79772 235.46656,250.88281 C 234.02384,249.44009 233.48569,248.26627 231.22392,247.70083 C 229.22262,247.2005 227.78648,246.36019 226.27417,245.22595 C 224.81681,244.13293 223.66152,241.86027 222.73864,240.62976 C 222.02635,239.68004 220.52242,239.12065 219.55666,238.15489 C 218.33147,236.9297 216.31766,236.72927 214.60691,236.38712 C 212.73908,236.01355 211.31241,235.68001 209.30361,235.68001 C 207.45876,235.68001 205.65279,235.73958 204.00031,235.32646 C 202.27653,234.89552 200.52818,234.97291 198.69701,234.97291 C 197.32499,234.97291 195.17282,236.03073 193.74726,236.38712 C 192.25726,236.75962 190.35508,234.93087 188.79751,234.61935 C 187.05499,234.27085 185.33939,234.2658 183.49421,234.2658 C 181.72644,234.2658 179.95868,234.2658 178.19091,234.2658 C 176.96462,234.2658 175.72577,234.7937 175.00893,234.97291"
       id="path3439" />
    <path
       style="fill:none;fill-rule:evenodd;stroke:#60a5fa;stroke-width:1px;stroke-linecap:butt;stroke-linejoin:miter;stroke-opacity:1"
       d="M 436.99199,299.31962 C 437.81194,298.22635 439.14788,296.42206 440.17397,294.36988 C 440.9682,292.78143 442.39541,292.14843 443.70951,290.83434 C 444.83135,289.7125 447.41704,289.46313 448.65925,289.77368 C 450.12304,290.13963 451.56833,291.82678 453.25545,292.24856 C 454.85852,292.64932 454.79304,288.57308 455.02321,287.65236 C 455.4232,286.05242 458.57331,286.23815 459.97296,286.23815 C 461.16344,286.23815 462.90907,284.44346 464.2156,284.11683 C 466.17317,283.62744 467.61279,282.41823 469.16535,281.64195 C 470.7377,280.85578 471.72048,279.00658 472.34733,277.75287 C 472.71455,277.01844 470.03486,274.89569 469.5189,273.86378 C 468.75431,272.33459 469.23904,270.03349 469.5189,268.91403 C 470.08105,266.66543 472.37012,266.88387 471.64022,263.96428 C 471.28695,262.5512 469.97275,261.53701 469.5189,259.72164 C 469.02898,257.76195 470.85635,256.6932 471.64022,255.12545 C 472.50894,253.38802 471.7565,251.71091 472.70088,249.82215 C 473.23059,248.76273 471.99378,245.94314 471.99378,244.51885 C 471.99378,242.45374 473.61779,240.77352 474.8222,239.5691 C 476.40948,237.98182 477.57842,237.86605 476.94353,235.32646 C 476.48447,233.49025 475.99111,231.87034 475.52931,230.02316 C 475.27584,229.00929 477.57263,226.29007 478.00419,225.42697 C 479.04662,223.34212 480.91398,221.54724 482.24683,219.77011 C 483.20095,218.49795 483.71812,216.35981 484.01459,215.17392 C 484.44754,213.44213 484.92706,211.93476 485.78236,210.22417 C 486.57289,208.64312 486.48947,206.84018 486.48947,204.92087 C 486.48947,202.9921 487.49115,201.5033 488.25723,199.97112 C 489.14419,198.19721 490.12719,196.68695 491.08566,195.72848 C 492.28601,194.52813 493.89742,193.27027 494.97475,192.19295 C 496.24821,190.91949 497.82555,190.04925 498.86384,189.01097 C 500.09599,187.77881 499.82055,185.68333 500.6316,184.06122 C 501.55579,182.21285 501.82376,180.69814 501.33871,178.75792 C 500.87939,176.92065 499.64538,174.94327 498.51028,173.80817 C 497.35799,172.65588 495.50392,170.7425 494.62119,169.56553 C 493.40365,167.94213 492.73451,167.04994 491.43921,165.32289 C 490.57356,164.16868 491.08566,161.42507 491.08566,160.01959 C 491.08566,158.29065 489.95887,156.35179 489.31789,155.06984 C 488.54785,153.52975 488.27685,151.98595 487.90368,150.12009 C 487.53011,148.25226 487.19657,146.82559 487.19657,144.81679 C 487.19657,143.07162 486.52346,140.99568 485.78236,139.51349 C 484.86713,137.68302 484.13717,136.46826 483.66104,134.56374 C 483.23916,132.87621 483.70818,130.8632 483.30749,129.26044 C 482.91758,127.70083 481.26788,126.2419 480.47906,124.66425 C 480.12473,123.95559 479.46172,123.64691 479.06485,123.25003"
       id="path3443" />
    <path
       style="fill:none;fill-rule:evenodd;stroke:#60a5fa;stroke-width:1px;stroke-linecap:butt;stroke-linejoin:miter;stroke-opacity:1"
       d="M 417.90011,402.20366 C 417.32761,401.05866 416.96584,399.12245 417.90011,397.25391 C 418.76158,395.53096 420.47388,395.05842 421.7892,394.07193 C 423.23588,392.98692 424.96278,392.30836 426.38539,391.59706 C 428.66058,390.45946 428.74102,389.28746 431.33514,388.76863 C 433.65035,388.30559 433.90159,387.66218 435.93133,386.64731 C 436.85948,386.18324 438.5045,383.41618 439.82042,382.75822 C 441.10545,382.11571 443.03439,382.03512 444.41661,381.34401 C 444.65786,381.22339 445.71953,376.97042 445.83083,376.74782 C 446.46299,375.48348 448.05899,375.61335 448.65925,373.21228 C 449.18864,371.09473 449.14612,370.19548 450.78057,368.96964 C 452.64361,367.57237 453.94539,369.35752 455.37677,366.49477 C 456.145,364.95831 456.85337,362.83446 457.49809,361.54502 C 458.49701,359.54718 459.07413,357.92857 461.03362,356.94883 C 462.58828,356.1715 464.45236,355.88817 466.33692,355.88817 C 468.25914,355.88817 470.11566,354.99866 471.28667,354.1204 C 472.48331,353.22292 473.29256,352.5835 474.1151,350.93842 C 475.03745,349.09371 475.31005,347.58649 474.8222,345.63512 C 474.36766,343.81696 473.54124,342.63259 473.05444,340.68537 C 472.57466,338.76628 474.57575,337.09629 475.88287,336.44273 C 477.82531,335.47151 479.42763,335.48761 480.83261,333.6143 C 481.70097,332.45649 484.02473,332.20009 485.78236,332.20009 C 487.36218,332.20009 489.22488,329.81823 490.025,329.01811 C 491.16694,327.87617 492.31972,325.66273 493.56053,324.42191 C 494.60672,323.37573 496.33988,322.67869 497.80318,321.94704 C 499.3721,321.16258 501.72287,321.60879 503.10648,322.30059 C 504.9025,323.1986 506.65759,323.54582 508.40978,324.42191 C 510.35585,325.39495 511.15031,325.7033 513.00597,324.77547 C 514.29791,324.1295 515.7006,321.86109 516.18795,320.88638 C 517.19119,318.8799 518.66677,318.48143 520.78415,318.05795 C 522.23858,317.76707 524.02724,315.87552 525.02679,314.87597 C 525.77538,314.12738 528.27173,313.44602 529.62298,313.10821 C 531.19194,312.71597 533.55469,313.11886 534.92628,313.46176 C 536.86916,313.94748 537.12497,314.87597 539.52248,314.87597 C 540.11173,314.87597 540.70099,314.87597 541.29024,314.87597 C 543.08117,314.87598 544.76046,314.4177 546.59354,314.87597 C 548.23736,315.28693 548.82861,316.93734 550.48263,317.35085 C 552.18758,317.77708 554.15765,317.29733 555.78593,317.7044 C 558.0089,318.26014 558.66688,319.37065 561.08923,318.76506 C 562.95182,318.29941 563.86836,317.02194 565.33187,316.29019 C 567.16694,315.37265 568.01055,315.33765 567.45319,313.10821 C 566.92125,310.98044 568.59078,309.77238 569.22096,308.51201 C 569.8062,307.34153 572.0738,307.0978 573.81715,307.0978 C 576.29841,307.0978 576.90789,306.48194 578.7669,304.62292 C 580.46583,302.92399 581.67952,302.45951 583.71665,301.44094 C 585.25898,300.66978 586.98265,300.09412 588.6664,299.67318 C 590.21883,299.28507 591.56654,298.39988 593.26259,297.55186 C 594.93538,296.71546 596.8306,296.92502 598.56589,296.4912 C 600.37352,296.03929 602.30467,297.29993 603.51564,297.90541 C 605.13724,298.71621 606.90168,298.53777 608.46539,299.31962 C 609.76135,299.9676 612.02291,300.12062 613.06158,300.38028 C 614.49607,300.73891 616.15242,300.73384 618.01133,300.73384 C 619.83913,300.73384 621.69476,300.78525 623.31463,300.38028 C 625.30548,299.88257 626.27247,298.96607 628.61793,298.96607 C 630.647,298.96607 631.37447,297.30466 633.21412,296.84475 C 635.41366,296.29487 636.86722,296.27924 638.87098,295.07698 C 640.53861,294.0764 640.96916,291.98757 641.34585,290.48079 C 641.76944,288.78644 642.27912,287.07264 643.46717,285.88459 C 644.78627,284.5655 646.71283,284.1893 648.41692,283.76327 C 650.53368,283.23408 652.07657,284.53244 653.36667,285.17749 C 654.81758,285.90295 656.79102,284.87952 658.31642,284.11683 C 659.3918,283.57914 659.58755,281.43148 660.43774,280.58129 C 661.69798,279.32105 663.30069,278.53973 665.03393,278.10642 C 666.68433,277.69382 668.26681,276.28776 669.27657,275.27799 C 670.77433,273.78023 671.875,274.07666 672.45855,271.74246 C 672.98699,269.62868 674.48632,268.60726 675.99408,267.85337 C 677.32851,267.18616 679.14475,266.88893 680.94383,266.43916 C 682.81573,265.97119 684.45196,265.12019 686.24713,264.67139 C 688.04736,264.22133 689.63509,264.70828 691.19688,264.31784 C 692.73861,263.93241 694.9016,264.31784 696.50018,264.31784 C 698.52065,264.31784 700.13965,264.19303 701.80348,265.02494 C 703.49226,265.86933 704.22739,267.04514 706.04612,267.49982 C 707.63987,267.89826 709.36054,269.33381 710.64232,269.97469 C 712.10974,270.7084 713.84434,270.95197 715.59206,271.38891 C 717.13379,271.77434 719.29679,271.38891 720.89537,271.38891 C 721.83817,271.38891 722.78098,271.38891 723.72379,271.38891 C 724.1952,271.38891 724.6666,271.38891 725.13801,271.38891 C 726.21975,271.3889 729.46264,273.37445 730.44131,273.86378 C 731.95375,274.62 733.90794,274.57089 735.74461,274.57089 C 737.61657,274.57089 739.24483,274.57972 740.69436,274.21733 C 742.67311,273.72264 743.88123,273.24384 745.6441,272.80312 C 747.20487,272.41293 748.73088,272.09601 750.59385,272.09601 C 752.43035,272.09601 754.26318,272.15095 755.89715,271.74246 C 757.61983,271.31179 759.56997,271.44297 761.20045,271.03535"
       id="path3445" />
    <path
       style="fill:none;fill-rule:evenodd;stroke:#60a5fa;stroke-width:1px;stroke-linecap:butt;stroke-linejoin:miter;stroke-opacity:1"
       d="M 581.59533,464.42906 C 583.37217,463.98485 584.3061,461.36474 585.48442,460.18642 C 586.90156,458.76927 587.41864,457.98187 589.3735,457.00444 C 590.99744,456.19247 593.0069,456.0077 594.6768,455.59022 C 596.14841,455.22232 597.86463,453.46306 598.56589,452.7618 C 600.29462,451.03307 601.04077,450.7913 601.04077,448.1656 C 601.04077,446.22354 603.264,445.99332 604.5763,445.33717 C 606.08298,444.58384 608.30085,445.41945 609.8796,444.63007 C 611.43586,443.85194 612.45537,442.98863 614.12224,442.15519 C 615.66295,441.38484 617.43587,439.08416 618.71844,438.44288 C 620.29949,437.65236 622.10242,437.73578 624.02174,437.73578 C 625.94662,437.73578 627.33685,437.09524 629.32504,438.08933 C 630.54749,438.70056 633.39045,437.95686 634.27478,437.73578 C 636.22973,437.24704 637.20009,436.12057 639.22453,435.61446 C 640.46023,435.30553 642.64283,436.29225 644.17428,436.67512 C 645.85106,437.09431 647.78145,437.31174 649.47758,437.73578 C 651.4882,438.23843 653.37412,436.66952 654.78088,435.61446 C 656.52675,434.30506 658.12765,434.68938 660.08418,434.20024 C 662.37029,433.62871 663.19455,433.81201 665.03393,432.43248 C 666.44284,431.37579 667.90546,428.81073 668.56946,427.48273 C 669.53773,425.54619 671.25394,425.46937 672.8121,424.30075 C 674.44382,423.07696 675.18134,422.28507 676.34764,421.11877 C 677.59827,419.86813 676.27836,418.54354 675.99408,417.40646 C 675.52329,415.52327 674.93342,414.84363 674.93342,412.45671 C 674.93342,410.83816 676.34764,409.64882 676.34764,407.50696 C 676.34764,405.33312 678.06214,405.17259 677.4083,402.55721 C 676.82172,400.21089 678.8042,399.03541 680.23673,397.96102 C 681.98419,396.65042 682.96682,395.53531 684.47937,394.77904 C 686.27873,393.87936 687.30089,393.37173 688.72201,391.95061 C 690.11009,390.56253 691.36456,389.30806 692.61109,388.06153 C 693.8011,386.87152 694.99,385.68262 695.79307,384.87954 C 697.13222,383.5404 698.76497,383.26934 700.38927,382.05112 C 701.97866,380.85908 702.96941,381.27647 703.57125,378.86914 C 704.00042,377.15244 706.75323,377.98798 706.75323,374.98005 C 706.75323,373.15516 708.86865,372.24444 709.93521,371.44452 C 711.52018,370.25579 712.69642,370.11499 712.05653,367.55543 C 711.55481,365.54855 711.18202,364.33595 711.70298,362.25213 C 712.15661,360.43758 713.41932,358.66731 714.17785,357.65593 C 715.18698,356.31042 717.71448,355.88789 719.1276,355.53461 C 720.89246,355.0934 722.20126,355.09982 723.72379,356.24172 C 724.878,357.10737 727.62161,356.59527 729.02709,356.59527 C 730.69174,356.59527 732.69084,355.86252 734.33039,355.53461 C 736.12555,355.17558 738.22608,355.53791 739.6337,356.24172 C 741.43069,357.14022 743.07356,357.6081 744.58344,358.36304 C 746.18108,359.16186 748.13707,359.69339 749.88674,360.13081 C 751.67251,360.57725 753.25913,361.817 754.83649,362.60568 C 756.71897,363.54692 758.16374,364.23299 760.13979,364.727 C 761.99866,365.19172 763.42478,365.78766 765.44309,365.78766 C 767.23226,365.78766 769.10132,365.13827 770.74639,364.727 C 772.60861,364.26145 774.06215,364.42839 775.69614,364.01989 C 776.15375,363.90549 776.72911,363.76165 777.11035,363.66634 C 779.58022,363.04887 780.17676,362.49693 779.58523,360.13081 C 778.92958,357.50822 777.8506,358.3299 780.29234,355.88817 C 781.30357,354.87694 782.20342,353.48021 782.76721,352.35263 C 783.53819,350.81067 785.58389,349.62141 786.6563,348.8171 C 787.79761,347.96112 788.92055,347.6135 789.83828,346.69578"
       id="path3447" />
  </g>
  
  
</svg>
